# xmcd CD database file
#
# Track frame offsets:
#	150
#	34220
#	68157
#	93507
#	126467
#	151037
#
# Disc length: 2452 seconds
#
# Revision: 3
# Processed by: cddbd v1.5.1PL0 Copyright (c) Steve Scherf et al.
# Submitted via: CDex 1.51
#
DISCID=4a099206
DTITLE=Ian Gillan Band - Clear Air Turbulence
DYEAR=1977
DGENRE=Rock
TTITLE0=Clear Air Turbulence
TTITLE1=Five Moons
TTITLE2=Money Lender
TTITLE3=Over The Hill
TTITLE4=Goodhand Liza
TTITLE5=Angel Manchenio
EXTD=YEAR: 1977
EXTT0=
EXTT1=
EXTT2=
EXTT3=
EXTT4=
EXTT5=
PLAYORDER=
